<svg width="42" height="42" viewBox="0 0 42 42" fill="none" xmlns="http://www.w3.org/2000/svg">
<path d="M23.0833 10.5832H18.9167V18.9165H10.5833V23.0832H18.9167V31.4165H23.0833V23.0832H31.4167V18.9165H23.0833V10.5832ZM21 0.166504C9.50001 0.166504 0.166672 9.49984 0.166672 20.9998C0.166672 32.4998 9.50001 41.8332 21 41.8332C32.5 41.8332 41.8333 32.4998 41.8333 20.9998C41.8333 9.49984 32.5 0.166504 21 0.166504ZM21 37.6665C11.8125 37.6665 4.33334 30.1873 4.33334 20.9998C4.33334 11.8123 11.8125 4.33317 21 4.33317C30.1875 4.33317 37.6667 11.8123 37.6667 20.9998C37.6667 30.1873 30.1875 37.6665 21 37.6665Z" fill="white"/>
</svg>
