<svg width="29" height="29" viewBox="0 0 29 29" fill="none" xmlns="http://www.w3.org/2000/svg">
<path d="M14.5 0.0957336C6.496 0.0957336 0 6.47943 0 14.345C0 22.2107 6.496 28.5944 14.5 28.5944C22.504 28.5944 29 22.2107 29 14.345C29 6.47943 22.504 0.0957336 14.5 0.0957336ZM14.5 4.37053C16.907 4.37053 18.85 6.27994 18.85 8.64532C18.85 11.0107 16.907 12.9201 14.5 12.9201C12.093 12.9201 10.15 11.0107 10.15 8.64532C10.15 6.27994 12.093 4.37053 14.5 4.37053ZM14.5 24.6046C10.875 24.6046 7.6705 22.7806 5.8 20.0163C5.8435 17.1807 11.6 15.6275 14.5 15.6275C17.3855 15.6275 23.1565 17.1807 23.2 20.0163C21.3295 22.7806 18.125 24.6046 14.5 24.6046Z" fill="#43474D"/>
</svg>
